<svg xmlns="http://www.w3.org/2000/svg" data-name="Layer 1" viewBox="0 0 80 100" x="0px" y="0px"><title>42_BO_delete_circle</title><path d="M50.92,29.08a1.5,1.5,0,0,0-2.12,0L40,37.88l-8.79-8.79a1.5,1.5,0,0,0-2.12,2.12L37.88,40l-8.79,8.79a1.5,1.5,0,1,0,2.12,2.12L40,42.12l8.79,8.79a1.5,1.5,0,0,0,2.12-2.12L42.12,40l8.79-8.79A1.5,1.5,0,0,0,50.92,29.08Z"/><path d="M40.06,11.31A28.69,28.69,0,1,0,68.75,40,28.72,28.72,0,0,0,40.06,11.31Zm0,54.38A25.69,25.69,0,1,1,65.75,40,25.72,25.72,0,0,1,40.06,65.69Z"/><text x="0" y="95" fill="#000000" font-size="5px" font-weight="bold" font-family="'Helvetica Neue', Helvetica, Arial-Unicode, Arial, Sans-serif">Created by Weltenraser</text><text x="0" y="100" fill="#000000" font-size="5px" font-weight="bold" font-family="'Helvetica Neue', Helvetica, Arial-Unicode, Arial, Sans-serif">from the Noun Project</text></svg>