<svg xmlns="http://www.w3.org/2000/svg" viewBox="0 0 32 40" x="0px" y="0px"><g data-name="Layer 29"><path d="M21.1309,3.834a1.5445,1.5445,0,0,0-1.5-1.582H13.6055a1.5445,1.5445,0,0,0-1.5,1.582v.68h9.0254Z"/><path d="M28.7324,5.5186H21.1309V5.5117H12.1055v.0069H4.5029a.5.5,0,0,0,0,1H6.0154L7.1006,27.7979a1.5154,1.5154,0,0,0,1.498,1.4541h16.09a1.5121,1.5121,0,0,0,1.499-1.4747l.81-21.2587h1.7351a.5.5,0,0,0,0-1ZM12.041,25.7832a.5.5,0,0,1-1,0V8.8535a.5.5,0,0,1,1,0Zm5.0772,0a.5.5,0,0,1-1,0V8.8535a.5.5,0,0,1,1,0Zm4.9355,0a.5.5,0,0,1-1,0V8.8535a.5.5,0,0,1,1,0Z"/></g><text x="0" y="47" fill="#000000" font-size="5px" font-weight="bold" font-family="'Helvetica Neue', Helvetica, Arial-Unicode, Arial, Sans-serif">Created by fahron</text><text x="0" y="52" fill="#000000" font-size="5px" font-weight="bold" font-family="'Helvetica Neue', Helvetica, Arial-Unicode, Arial, Sans-serif">from the Noun Project</text></svg>