<svg xmlns="http://www.w3.org/2000/svg" data-name="Layer 1" viewBox="0 0 95 118.75" x="0px" y="0px"><title>rotation</title><path d="M76.75,58.09a1,1,0,0,0-1.3.56,30,30,0,0,1-57.71-7.86l1.9.5a.75.75,0,0,0,.26,0,1,1,0,0,0,1-1.26l-2.38-8.9a1,1,0,0,0-.71-.7,1,1,0,0,0-1,.26l-6.52,6.51a1,1,0,0,0-.26,1,1,1,0,0,0,.71.71l4.94,1.32a32,32,0,0,0,61.63,9.16A1,1,0,0,0,76.75,58.09ZM17,43.36l1.48,5.55-1.15-.31a1.07,1.07,0,0,0-.78-.33,2,2,0,0,0-.23.06l-3.39-.9Z"/><path d="M85,48.57a1,1,0,0,0-.71-.71l-4.69-1.25a32,32,0,0,0-62.4-9.17,1,1,0,0,0,.64,1.26,1,1,0,0,0,1.26-.64,30,30,0,0,1,58.49,8l-2.2-.59a1,1,0,0,0-1,.26,1,1,0,0,0-.26,1l2.38,8.9a1,1,0,0,0,.71.71,1.09,1.09,0,0,0,.26,0,1,1,0,0,0,.7-.29l6.52-6.52A1,1,0,0,0,85,48.57Zm-7,4.84-1.48-5.55,1.41.38a1,1,0,0,0,.66.26,1.06,1.06,0,0,0,.19,0l3.29.89Z"/><path d="M47.5,4A43.5,43.5,0,1,0,91,47.5,43.54,43.54,0,0,0,47.5,4Zm0,85A41.5,41.5,0,1,1,89,47.5,41.55,41.55,0,0,1,47.5,89Z"/></svg>