<svg xmlns="http://www.w3.org/2000/svg" xmlns:xlink="http://www.w3.org/1999/xlink" version="1.1" x="0px" y="0px" viewBox="0 0 64 80" enable-background="new 0 0 64 64" xml:space="preserve"><path d="M56.783,64H7.22c-3.98,0-7.218-3.238-7.218-7.219V7.219C0.002,3.239,3.24,0,7.22,0h49.563c3.98,0,7.219,3.238,7.219,7.218  v49.563C64.002,60.762,60.764,64,56.783,64z M7.22,3C4.894,3,3.002,4.893,3.002,7.219v49.562C3.002,59.107,4.894,61,7.22,61h49.563  c2.326,0,4.219-1.893,4.219-4.219V7.219C61.002,4.893,59.109,3,56.783,3H7.22z"/><path d="M38.179,32.511c-0.223,0.891-0.33,1.618-0.322,2.182c0.007,0.564,0.093,1.011,0.261,1.337  c0.166,0.326,0.403,0.553,0.709,0.677c0.306,0.127,0.654,0.188,1.044,0.188c0.584,0,1.137-0.184,1.66-0.553  c0.521-0.369,0.977-0.888,1.366-1.557c0.391-0.667,0.7-1.461,0.93-2.379s0.345-1.921,0.345-3.005c0-1.81-0.282-3.403-0.846-4.781  c-0.563-1.377-1.354-2.529-2.37-3.454c-1.015-0.926-2.222-1.622-3.622-2.088c-1.397-0.467-2.932-0.7-4.603-0.7  c-1.837,0-3.535,0.346-5.093,1.034c-1.56,0.688-2.913,1.632-4.06,2.828c-1.148,1.197-2.047,2.609-2.693,4.238  c-0.647,1.628-0.971,3.382-0.971,5.26c0,2.283,0.354,4.291,1.064,6.023c0.71,1.733,1.685,3.181,2.922,4.343  c1.239,1.162,2.696,2.034,4.374,2.618c1.677,0.585,3.49,0.877,5.437,0.877c1.071,0,2.075-0.06,3.007-0.177  c0.933-0.118,1.789-0.278,2.568-0.48c0.778-0.201,1.487-0.431,2.129-0.688c0.64-0.258,1.211-0.532,1.712-0.824  c0.361-0.209,0.681-0.272,0.96-0.188c0.278,0.084,0.479,0.292,0.605,0.625l0.71,1.86c-1.448,0.944-3.138,1.717-5.072,2.316  c-1.935,0.599-4.141,0.897-6.619,0.897c-2.519,0-4.85-0.396-6.992-1.189c-2.144-0.795-3.998-1.932-5.563-3.413  c-1.566-1.483-2.791-3.289-3.675-5.418c-0.883-2.13-1.325-4.522-1.325-7.182c0-1.488,0.191-2.936,0.574-4.342  c0.383-1.405,0.929-2.724,1.639-3.956c0.71-1.231,1.565-2.362,2.568-3.393c1.002-1.029,2.115-1.912,3.34-2.65  c1.224-0.738,2.55-1.312,3.977-1.723c1.427-0.41,2.919-0.615,4.478-0.615c1.977,0,3.873,0.33,5.688,0.991s3.424,1.607,4.823,2.839  c1.398,1.231,2.515,2.735,3.35,4.51s1.253,3.775,1.253,6.002c0,1.488-0.219,2.884-0.658,4.185c-0.438,1.302-1.05,2.432-1.837,3.393  c-0.786,0.96-1.712,1.715-2.776,2.265c-1.064,0.551-2.223,0.825-3.476,0.825c-0.96,0-1.81-0.223-2.546-0.669  c-0.738-0.443-1.246-1.162-1.524-2.149c-0.822,1.001-1.691,1.72-2.609,2.149c-0.919,0.433-1.914,0.648-2.986,0.648  c-0.876,0-1.639-0.154-2.285-0.46c-0.648-0.306-1.19-0.728-1.629-1.262c-0.438-0.537-0.766-1.171-0.98-1.9  c-0.216-0.731-0.324-1.527-0.324-2.391c0-0.794,0.101-1.598,0.303-2.411c0.201-0.814,0.504-1.6,0.908-2.359  c0.403-0.758,0.908-1.468,1.513-2.129c0.606-0.661,1.315-1.238,2.129-1.732c0.814-0.494,1.734-0.884,2.756-1.169  c1.023-0.285,2.147-0.429,3.373-0.429c1.085,0,2.01,0.084,2.775,0.251c0.765,0.167,1.503,0.403,2.212,0.71L38.179,32.511z   M35.736,27.167c-0.445-0.083-0.904-0.125-1.377-0.125c-0.863,0-1.67,0.188-2.422,0.563s-1.402,0.884-1.953,1.523  c-0.549,0.641-0.984,1.375-1.305,2.202c-0.32,0.829-0.48,1.688-0.48,2.578c0,0.893,0.191,1.583,0.574,2.077  c0.383,0.496,0.943,0.743,1.681,0.743c0.361,0,0.728-0.057,1.097-0.168c0.368-0.111,0.72-0.311,1.054-0.596  c0.333-0.285,0.641-0.664,0.918-1.137c0.278-0.474,0.508-1.065,0.689-1.775L35.736,27.167z"/></svg>