<svg xmlns="http://www.w3.org/2000/svg" xmlns:xlink="http://www.w3.org/1999/xlink" xmlns:sketch="http://www.bohemiancoding.com/sketch/ns" viewBox="0 0 60 72.5" version="1.1" x="0px" y="0px"><title>12 - Mirror Horizontally (Solid)</title><desc>Created with Sketch.</desc><g stroke="none" stroke-width="1" fill="none" fill-rule="evenodd" sketch:type="MSPage"><g sketch:type="MSLayerGroup" fill="#000000"><path d="M0,55.016 L27.652,34 L0,12.984 L0,55.016" sketch:type="MSShapeGroup"/><path d="M32.348,34 L60,55.016 L60,12.984 L32.348,34" sketch:type="MSShapeGroup"/><path d="M30,40 C29.447,40 29,40.447 29,41 L29,42 C29,42.553 29.447,43 30,43 C30.553,43 31,42.553 31,42 L31,41 C31,40.447 30.553,40 30,40" sketch:type="MSShapeGroup"/><path d="M30,50 C29.447,50 29,50.447 29,51 L29,52 C29,52.553 29.447,53 30,53 C30.553,53 31,52.553 31,52 L31,51 C31,50.447 30.553,50 30,50" sketch:type="MSShapeGroup"/><path d="M30,55 C29.447,55 29,55.447 29,56 L29,57 C29,57.553 29.447,58 30,58 C30.553,58 31,57.553 31,57 L31,56 C31,55.447 30.553,55 30,55" sketch:type="MSShapeGroup"/><path d="M30,20 C29.447,20 29,20.447 29,21 L29,22 C29,22.553 29.447,23 30,23 C30.553,23 31,22.553 31,22 L31,21 C31,20.447 30.553,20 30,20" sketch:type="MSShapeGroup"/><path d="M30,25 C29.447,25 29,25.447 29,26 L29,27 C29,27.553 29.447,28 30,28 C30.553,28 31,27.553 31,27 L31,26 C31,25.447 30.553,25 30,25" sketch:type="MSShapeGroup"/><path d="M30,10 C29.447,10 29,10.447 29,11 L29,12 C29,12.553 29.447,13 30,13 C30.553,13 31,12.553 31,12 L31,11 C31,10.447 30.553,10 30,10" sketch:type="MSShapeGroup"/><path d="M30,15 C29.447,15 29,15.447 29,16 L29,17 C29,17.553 29.447,18 30,18 C30.553,18 31,17.553 31,17 L31,16 C31,15.447 30.553,15 30,15" sketch:type="MSShapeGroup"/><path d="M30,30 C29.447,30 29,30.447 29,31 L29,32 C29,32.553 29.447,33 30,33 C30.553,33 31,32.553 31,32 L31,31 C31,30.447 30.553,30 30,30" sketch:type="MSShapeGroup"/><path d="M30,35 C29.447,35 29,35.447 29,36 L29,37 C29,37.553 29.447,38 30,38 C30.553,38 31,37.553 31,37 L31,36 C31,35.447 30.553,35 30,35" sketch:type="MSShapeGroup"/><path d="M30.71,45.02 C30.34,44.649 29.67,44.649 29.29,45.02 C29.109,45.21 29,45.47 29,45.73 C29,45.776 29.021,45.819 29.027,45.865 C29.021,45.911 29,45.952 29,46 L29,47 C29,47.553 29.447,48 30,48 C30.553,48 31,47.553 31,47 L31,46 C31,45.952 30.979,45.911 30.973,45.864 C30.979,45.819 31,45.775 31,45.73 C31,45.47 30.89,45.21 30.71,45.02" sketch:type="MSShapeGroup"/><path d="M11.973,13.929 C12.484,14.133 13.066,13.884 13.272,13.371 C15.989,6.569 22.712,2 30,2 C37.001,2 43.469,6.224 46.363,12.545 L40.461,10.964 C39.93,10.822 39.379,11.138 39.236,11.671 C39.094,12.204 39.41,12.753 39.943,12.896 L47.671,14.966 C47.758,14.989 47.845,15 47.931,15 C47.942,15 47.953,14.995 47.964,14.994 C47.977,14.995 47.988,15 48,15 C48.107,15 48.218,14.982 48.325,14.945 C48.759,14.796 49.007,14.378 48.981,13.941 L50.966,6.531 C51.108,5.998 50.792,5.449 50.259,5.307 C49.728,5.165 49.177,5.48 49.034,6.014 L47.744,10.829 C44.327,4.284 37.433,0 30,0 C21.901,0 14.433,5.075 11.415,12.629 C11.21,13.142 11.46,13.724 11.973,13.929" sketch:type="MSShapeGroup"/></g></g></svg>