<svg xmlns="http://www.w3.org/2000/svg" xmlns:xlink="http://www.w3.org/1999/xlink" version="1.1" x="0px" y="0px" viewBox="0 0 24 30" enable-background="new 0 0 24 24" xml:space="preserve"><g><path d="M15.002,7.727c-0.164,0-0.325-0.063-0.448-0.18c-0.19-0.182-0.253-0.46-0.158-0.705l2.46-6.374   c0.095-0.245,0.328-0.409,0.591-0.415c0.005-0.001,0.01-0.001,0.016-0.001c0.257,0,0.49,0.151,0.594,0.387l1.957,4.417   c0.07,0.158,0.074,0.337,0.012,0.498c-0.062,0.16-0.186,0.29-0.343,0.36l-4.417,1.957C15.181,7.708,15.091,7.727,15.002,7.727z    M17.504,2.4l-1.331,3.446l2.389-1.059L17.504,2.4z"/><path d="M12.343,23.948c-1.307,0-2.616-0.242-3.871-0.727c-5.525-2.133-8.285-8.362-6.153-13.888   c2.133-5.523,8.362-8.287,13.887-6.152c0.335,0.129,0.502,0.506,0.373,0.841c-0.13,0.335-0.508,0.498-0.84,0.372   C10.881,2.52,5.406,4.946,3.531,9.803c-1.874,4.855,0.552,10.332,5.408,12.206c2.353,0.908,4.917,0.846,7.223-0.176   s4.075-2.88,4.983-5.232c0.129-0.335,0.508-0.5,0.84-0.372c0.335,0.129,0.502,0.506,0.373,0.841   c-1.033,2.676-3.046,4.79-5.669,5.952C15.297,23.639,13.821,23.948,12.343,23.948z"/></g><text x="0" y="39" fill="#000000" font-size="5px" font-weight="bold" font-family="'Helvetica Neue', Helvetica, Arial-Unicode, Arial, Sans-serif">Created by Atif Arshad</text><text x="0" y="44" fill="#000000" font-size="5px" font-weight="bold" font-family="'Helvetica Neue', Helvetica, Arial-Unicode, Arial, Sans-serif">from the Noun Project</text></svg>