<svg xmlns="http://www.w3.org/2000/svg" data-name="Layer 1" viewBox="0 0 80 100"><path d="M50.92 29.08a1.5 1.5 0 00-2.12 0l-8.8 8.8-8.79-8.79a1.5 1.5 0 00-2.12 2.12L37.88 40l-8.79 8.79a1.5 1.5 0 102.12 2.12L40 42.12l8.79 8.79a1.5 1.5 0 002.12-2.12L42.12 40l8.79-8.79a1.5 1.5 0 00.01-2.13z"/><path d="M40.06 11.31A28.69 28.69 0 1068.75 40a28.72 28.72 0 00-28.69-28.69zm0 54.38A25.69 25.69 0 1165.75 40a25.72 25.72 0 01-25.69 25.69z"/><text y="95" font-size="5" font-weight="bold" font-family="'Helvetica Neue', Helvetica, Arial-Unicode, Arial, Sans-serif">Created by Weltenraser</text><text y="100" font-size="5" font-weight="bold" font-family="'Helvetica Neue', Helvetica, Arial-Unicode, Arial, Sans-serif">from the Noun Project</text></svg>