<svg xmlns="http://www.w3.org/2000/svg" viewBox="0 0 32 40"><path d="M21.13 3.834a1.544 1.544 0 00-1.5-1.582h-6.024a1.544 1.544 0 00-1.5 1.582v.68h9.025zm7.602 1.685h-7.601v-.007h-9.026v.007H4.503a.5.5 0 000 1h1.512l1.086 21.279a1.515 1.515 0 001.498 1.454h16.09a1.512 1.512 0 001.499-1.475l.81-21.258h1.735a.5.5 0 000-1zM12.041 25.783a.5.5 0 01-1 0V8.853a.5.5 0 011 0zm5.077 0a.5.5 0 01-1 0V8.853a.5.5 0 011 0zm4.936 0a.5.5 0 01-1 0V8.853a.5.5 0 011 0z" data-name="Layer 29"/><text y="47" font-size="5" font-weight="bold" font-family="'Helvetica Neue', Helvetica, Arial-Unicode, Arial, Sans-serif">Created by fahron</text><text y="52" font-size="5" font-weight="bold" font-family="'Helvetica Neue', Helvetica, Arial-Unicode, Arial, Sans-serif">from the Noun Project</text></svg>