<svg xmlns="http://www.w3.org/2000/svg" data-name="Layer 1" viewBox="0 0 95 118.75"><path d="M76.75 58.09a1 1 0 00-1.3.56 30 30 0 01-57.71-7.86l1.9.5a.75.75 0 00.26 0 1 1 0 001-1.26l-2.38-8.9a1 1 0 00-.71-.7 1 1 0 00-1 .26l-6.52 6.51a1 1 0 00-.26 1 1 1 0 00.71.71l4.94 1.32a32 32 0 0061.63 9.16 1 1 0 00-.56-1.3zM17 43.36l1.48 5.55-1.15-.31a1.07 1.07 0 00-.78-.33 2 2 0 00-.23.06l-3.39-.9zm68 5.21a1 1 0 00-.71-.71l-4.69-1.25a32 32 0 00-62.4-9.17 1 1 0 00.64 1.26 1 1 0 001.26-.64 30 30 0 0158.49 8l-2.2-.59a1 1 0 00-1 .26 1 1 0 00-.26 1l2.38 8.9a1 1 0 00.71.71 1.09 1.09 0 00.26 0 1 1 0 00.7-.29l6.52-6.52a1 1 0 00.3-.96zm-7 4.84l-1.48-5.55 1.41.38a1 1 0 00.66.26 1.06 1.06 0 00.19 0l3.29.89z"/><path d="M47.5 4A43.5 43.5 0 1091 47.5 43.54 43.54 0 0047.5 4zm0 85A41.5 41.5 0 1189 47.5 41.55 41.55 0 0147.5 89z"/></svg>