<svg xmlns="http://www.w3.org/2000/svg" viewBox="0 0 64 80"><path d="M56.783 64H7.22C3.24 64 .002 60.762.002 56.781V7.219C.002 3.239 3.24 0 7.22 0h49.563c3.98 0 7.219 3.238 7.219 7.218v49.563A7.227 7.227 0 0156.783 64zM7.22 3a4.223 4.223 0 00-4.218 4.219v49.562A4.223 4.223 0 007.22 61h49.563a4.224 4.224 0 004.219-4.219V7.219A4.224 4.224 0 0056.783 3H7.22z"/><path d="M38.179 32.511c-.223.891-.33 1.618-.322 2.182.007.564.093 1.011.261 1.337.166.326.403.553.709.677.306.127.654.188 1.044.188.584 0 1.137-.184 1.66-.553.521-.369.977-.888 1.366-1.557.391-.667.7-1.461.93-2.379s.345-1.921.345-3.005c0-1.81-.282-3.403-.846-4.781-.563-1.377-1.354-2.529-2.37-3.454-1.015-.926-2.222-1.622-3.622-2.088-1.397-.467-2.932-.7-4.603-.7-1.837 0-3.535.346-5.093 1.034a12.62 12.62 0 00-4.06 2.828c-1.148 1.197-2.047 2.609-2.693 4.238-.647 1.628-.971 3.382-.971 5.26 0 2.283.354 4.291 1.064 6.023.71 1.733 1.685 3.181 2.922 4.343 1.239 1.162 2.696 2.034 4.374 2.618 1.677.585 3.49.877 5.437.877a24.2 24.2 0 003.007-.177 20.51 20.51 0 002.568-.48 17.538 17.538 0 002.129-.688c.64-.258 1.211-.532 1.712-.824.361-.209.681-.272.96-.188.278.084.479.292.605.625l.71 1.86c-1.448.944-3.138 1.717-5.072 2.316-1.935.599-4.141.897-6.619.897-2.519 0-4.85-.396-6.992-1.189-2.144-.795-3.998-1.932-5.563-3.413-1.566-1.483-2.791-3.289-3.675-5.418-.883-2.13-1.325-4.522-1.325-7.182 0-1.488.191-2.936.574-4.342a16.663 16.663 0 011.639-3.956 17.1 17.1 0 012.568-3.393 16.599 16.599 0 013.34-2.65 16.516 16.516 0 013.977-1.723 16.133 16.133 0 014.478-.615c1.977 0 3.873.33 5.688.991s3.424 1.607 4.823 2.839c1.398 1.231 2.515 2.735 3.35 4.51s1.253 3.775 1.253 6.002c0 1.488-.219 2.884-.658 4.185-.438 1.302-1.05 2.432-1.837 3.393a8.763 8.763 0 01-2.776 2.265c-1.064.551-2.223.825-3.476.825-.96 0-1.81-.223-2.546-.669-.738-.443-1.246-1.162-1.524-2.149-.822 1.001-1.691 1.72-2.609 2.149a6.915 6.915 0 01-2.986.648c-.876 0-1.639-.154-2.285-.46a4.65 4.65 0 01-1.629-1.262 5.357 5.357 0 01-.98-1.9 8.403 8.403 0 01-.324-2.391c0-.794.101-1.598.303-2.411.201-.814.504-1.6.908-2.359.403-.758.908-1.468 1.513-2.129a9.674 9.674 0 012.129-1.732 10.96 10.96 0 012.756-1.169c1.023-.285 2.147-.429 3.373-.429 1.085 0 2.01.084 2.775.251.765.167 1.503.403 2.212.71l-2.006 7.744zm-2.443-5.344a7.495 7.495 0 00-1.377-.125c-.863 0-1.67.188-2.422.563s-1.402.884-1.953 1.523a7.559 7.559 0 00-1.305 2.202 7.097 7.097 0 00-.48 2.578c0 .893.191 1.583.574 2.077.383.496.943.743 1.681.743.361 0 .728-.057 1.097-.168.368-.111.72-.311 1.054-.596a4.42 4.42 0 00.918-1.137c.278-.474.508-1.065.689-1.775l1.524-5.885z"/></svg>