<svg xmlns="http://www.w3.org/2000/svg" viewBox="0 0 60 72.5"><g fill-rule="evenodd"><path d="M0 55.016L27.652 34 0 12.984v42.032M32.348 34L60 55.016V12.984L32.348 34M30 40a1 1 0 00-1 1v1a1 1 0 102 0v-1a1 1 0 00-1-1m0 10a1 1 0 00-1 1v1a1 1 0 102 0v-1a1 1 0 00-1-1m0 5a1 1 0 00-1 1v1a1 1 0 102 0v-1a1 1 0 00-1-1m0-35a1 1 0 00-1 1v1a1 1 0 102 0v-1a1 1 0 00-1-1m0 5a1 1 0 00-1 1v1a1 1 0 102 0v-1a1 1 0 00-1-1m0-15a1 1 0 00-1 1v1a1 1 0 102 0v-1a1 1 0 00-1-1m0 5a1 1 0 00-1 1v1a1 1 0 102 0v-1a1 1 0 00-1-1m0 15a1 1 0 00-1 1v1a1 1 0 102 0v-1a1 1 0 00-1-1m0 5a1 1 0 00-1 1v1a1 1 0 102 0v-1a1 1 0 00-1-1m.71 10.02c-.37-.371-1.04-.371-1.42 0-.181.19-.29.45-.29.71 0 .046.021.089.027.135-.006.046-.027.087-.027.135v1a1 1 0 102 0v-1c0-.048-.021-.089-.027-.136.006-.045.027-.089.027-.134 0-.26-.11-.52-.29-.71"/><path d="M11.973 13.929a1.001 1.001 0 001.299-.558C15.989 6.569 22.712 2 30 2c7.001 0 13.469 4.224 16.363 10.545l-5.902-1.581a1.002 1.002 0 00-1.225.707 1.002 1.002 0 00.707 1.225l7.728 2.07c.087.023.174.034.26.034.011 0 .022-.005.033-.006.013.001.024.006.036.006a.985.985 0 00.981-1.059l1.985-7.41a1 1 0 00-1.932-.517l-1.29 4.815C44.327 4.284 37.433 0 30 0c-8.099 0-15.567 5.075-18.585 12.629a1 1 0 00.558 1.3"/></g></svg>