<svg xmlns="http://www.w3.org/2000/svg" viewBox="0 0 24 30"><path d="M15.002 7.727a.65.65 0 01-.606-.885l2.46-6.374a.65.65 0 01.591-.415l.016-.001c.257 0 .49.151.594.387l1.957 4.417a.651.651 0 01-.331.858l-4.417 1.957a.663.663 0 01-.264.056zM17.504 2.4l-1.331 3.446 2.389-1.059L17.504 2.4z"/><path d="M12.343 23.948c-1.307 0-2.616-.242-3.871-.727C2.947 21.088.187 14.859 2.319 9.333c2.133-5.523 8.362-8.287 13.887-6.152a.65.65 0 01.373.841.653.653 0 01-.84.372C10.881 2.52 5.406 4.946 3.531 9.803c-1.874 4.855.552 10.332 5.408 12.206 2.353.908 4.917.846 7.223-.176s4.075-2.88 4.983-5.232a.651.651 0 011.213.469 10.67 10.67 0 01-5.669 5.952 10.708 10.708 0 01-4.346.926z"/><text y="39" font-size="5" font-weight="bold" font-family="'Helvetica Neue', Helvetica, Arial-Unicode, Arial, Sans-serif">Created by Atif Arshad</text><text y="44" font-size="5" font-weight="bold" font-family="'Helvetica Neue', Helvetica, Arial-Unicode, Arial, Sans-serif">from the Noun Project</text></svg>