<svg xmlns="http://www.w3.org/2000/svg" viewBox="0 0 100 125"><switch><g><path d="M34.2 33l9.7-9.7v42.8c0 3.4 2.7 6.1 6.1 6.1s6.1-2.7 6.1-6.1V23.2l9.7 9.7c1.2 1.2 2.7 1.8 4.3 1.8 1.6 0 3.1-.6 4.3-1.8 2.4-2.4 2.4-6.2 0-8.6l-20.1-20c-2.4-2.4-6.2-2.4-8.6 0L25.6 24.4c-2.4 2.4-2.4 6.2 0 8.6 2.4 2.4 6.2 2.4 8.6 0z"/><path d="M86.2 62.8c-3.4 0-6.1 2.7-6.1 6.1v16.5H19.8V68.9c0-3.4-2.7-6.1-6.1-6.1s-6.1 2.7-6.1 6.1v22.6c0 3.4 2.7 6.1 6.1 6.1h72.5c3.4 0 6.1-2.7 6.1-6.1V68.9c0-3.4-2.7-6.1-6.1-6.1z"/></g></switch></svg>